999
dxflib 3.17.0.0
  0
SECTION
  2
HEADER
  9
$ACADVER
  1
AC1015
  9
$HANDSEED
  5
FFFF
  9
$DIMADEC
 70
0
  9
$DIMASZ
 40
2.5
  9
$DIMAUNIT
 70
2
  9
$DIMAZIN
 70
2
  9
$DIMDEC
 70
1
  9
$DIMDLI
 40
5.0
  9
$DIMDSEP
 70
46
  9
$DIMEXE
 40
1.25
  9
$DIMEXO
 40
0.625
  9
$DIMGAP
 40
0.625
  9
$DIMLUNIT
 70
2
  9
$DIMSCALE
 40
1.0
  9
$DIMTSZ
 40
0
  9
$DIMTXT
 40
2.5
  9
$DIMZIN
 70
8
  9
$DWGCODEPAGE
  3
ANSI_1252
  9
$INSUNITS
 70
5
  9
$LTSCALE
 40
1.0
  9
$MAXACTVP
 70
64
  9
$MEASUREMENT
 70
1
  9
$PDMODE
 70
0
  9
$PDSIZE
 40
0.0
  0
ENDSEC
  0
SECTION
  2
TABLES
  0
TABLE
  2
VPORT
  5
8
100
AcDbSymbolTable
 70
1
  0
VPORT
  5
30
100
AcDbSymbolTableRecord
100
AcDbViewportTableRecord
  2
*Active
 70
0
 10
0.0
 20
0.0
 11
1.0
 21
1.0
 12
286.3055555555554861
 22
148.5
 13
0.0
 23
0.0
 14
10.0
 24
10.0
 15
10.0
 25
10.0
 16
0.0
 26
0.0
 36
1.0
 17
0.0
 27
0.0
 37
0.0
 40
297.0
 41
1.92798353909465
 42
50.0
 43
0.0
 44
0.0
 50
0.0
 51
0.0
 71
0
 72
100
 73
1
 74
3
 75
1
 76
1
 77
0
 78
0
281
0
 65
1
110
0.0
120
0.0
130
0.0
111
1.0
121
0.0
131
0.0
112
0.0
122
1.0
132
0.0
 79
0
146
0.0
  0
ENDTAB
  0
TABLE
  2
LTYPE
  5
5
100
AcDbSymbolTable
 70
41
  0
LTYPE
  5
16
100
AcDbSymbolTableRecord
100
AcDbLinetypeTableRecord
  2
Continuous
 70
0
  3
Solid line
 72
65
 73
0
 40
0.0
  0
LTYPE
  5
31
100
AcDbSymbolTableRecord
100
AcDbLinetypeTableRecord
  2
ACAD_ISO03W100
 70
0
  3
ISO dash space __    __    __    __    __    __
 72
65
 73
2
 40
30.0
 49
12.0
 74
0
 49
-18.0
 74
0
  0
LTYPE
  5
32
100
AcDbSymbolTableRecord
100
AcDbLinetypeTableRecord
  2
ACAD_ISO14W100
 70
0
  3
ISO dash triple-dot __ . . . __ . . . __ . . . _
 72
65
 73
8
 40
24.0
 49
12.0
 74
0
 49
-3.0
 74
0
 49
0.0
 74
0
 49
-3.0
 74
0
 49
0.0
 74
0
 49
-3.0
 74
0
 49
0.0
 74
0
 49
-3.0
 74
0
  0
LTYPE
  5
33
100
AcDbSymbolTableRecord
100
AcDbLinetypeTableRecord
  2
CENTERX2
 70
0
  3
Center (2x) ________  __  ________  __  _____
 72
65
 73
4
 40
101.6000000000000085
 49
63.5
 74
0
 49
-12.6999999999999993
 74
0
 49
12.6999999999999993
 74
0
 49
-12.6999999999999993
 74
0
  0
LTYPE
  5
34
100
AcDbSymbolTableRecord
100
AcDbLinetypeTableRecord
  2
BORDERX2
 70
0
  3
Border (2x) ____  ____  .  ____  ____  .  ___
 72
65
 73
6
 40
88.8999999999999915
 49
25.3999999999999986
 74
0
 49
-12.6999999999999993
 74
0
 49
25.3999999999999986
 74
0
 49
-12.6999999999999993
 74
0
 49
0.0
 74
0
 49
-12.6999999999999993
 74
0
  0
LTYPE
  5
35
100
AcDbSymbolTableRecord
100
AcDbLinetypeTableRecord
  2
HIDDEN2
 70
0
  3
Hidden (.5x) _ _ _ _ _ _ _ _ _ _ _ _ _ _ _ _ _ 
 72
65
 73
2
 40
4.7624999999999993
 49
3.1749999999999998
 74
0
 49
-1.5874999999999999
 74
0
  0
LTYPE
  5
36
100
AcDbSymbolTableRecord
100
AcDbLinetypeTableRecord
  2
ACAD_ISO07W100
 70
0
  3
ISO dot . . . . . . . . . . . . . . . . . . . . 
 72
65
 73
2
 40
3.0
 49
0.0
 74
0
 49
-3.0
 74
0
  0
LTYPE
  5
37
100
AcDbSymbolTableRecord
100
AcDbLinetypeTableRecord
  2
DASHDOT2
 70
0
  3
Dash dot (.5x) _._._._._._._._._._._._._._._.
 72
65
 73
4
 40
12.6999999999999993
 49
6.3499999999999996
 74
0
 49
-3.1749999999999998
 74
0
 49
0.0
 74
0
 49
-3.1749999999999998
 74
0
  0
LTYPE
  5
38
100
AcDbSymbolTableRecord
100
AcDbLinetypeTableRecord
  2
CENTER
 70
0
  3
Center ____ _ ____ _ ____ _ ____ _ ____ _ ____
 72
65
 73
4
 40
50.8000000000000043
 49
31.75
 74
0
 49
-6.3499999999999996
 74
0
 49
6.3499999999999996
 74
0
 49
-6.3499999999999996
 74
0
  0
LTYPE
  5
39
100
AcDbSymbolTableRecord
100
AcDbLinetypeTableRecord
  2
DASHDOT
 70
0
  3
Dash dot __ . __ . __ . __ . __ . __ . __ . __
 72
65
 73
4
 40
25.3999999999999986
 49
12.6999999999999993
 74
0
 49
-6.3499999999999996
 74
0
 49
0.0
 74
0
 49
-6.3499999999999996
 74
0
  0
LTYPE
  5
3A
100
AcDbSymbolTableRecord
100
AcDbLinetypeTableRecord
  2
BORDER2
 70
0
  3
Border (.5x) __.__.__.__.__.__.__.__.__.__.__.
 72
65
 73
6
 40
22.2249999999999979
 49
6.3499999999999996
 74
0
 49
-3.1749999999999998
 74
0
 49
6.3499999999999996
 74
0
 49
-3.1749999999999998
 74
0
 49
0.0
 74
0
 49
-3.1749999999999998
 74
0
  0
LTYPE
  5
3B
100
AcDbSymbolTableRecord
100
AcDbLinetypeTableRecord
  2
CENTER2
 70
0
  3
Center (.5x) ___ _ ___ _ ___ _ ___ _ ___ _ ___
 72
65
 73
4
 40
28.5750000000000028
 49
19.0500000000000007
 74
0
 49
-3.1749999999999998
 74
0
 49
3.1749999999999998
 74
0
 49
-3.1749999999999998
 74
0
  0
LTYPE
  5
3C
100
AcDbSymbolTableRecord
100
AcDbLinetypeTableRecord
  2
ACAD_ISO04W100
 70
0
  3
ISO long-dash dot ____ . ____ . ____ . ____ . _
 72
65
 73
4
 40
30.0
 49
24.0
 74
0
 49
-3.0
 74
0
 49
0.0
 74
0
 49
-3.0
 74
0
  0
LTYPE
  5
3D
100
AcDbSymbolTableRecord
100
AcDbLinetypeTableRecord
  2
DASHED2
 70
0
  3
Dashed (.5x) _ _ _ _ _ _ _ _ _ _ _ _ _ _ _ _ _ 
 72
65
 73
2
 40
9.5249999999999986
 49
6.3499999999999996
 74
0
 49
-3.1749999999999998
 74
0
  0
LTYPE
  5
3E
100
AcDbSymbolTableRecord
100
AcDbLinetypeTableRecord
  2
ACAD_ISO06W100
 70
0
  3
ISO long-dash triple-dot ____ ... ____ ... ____
 72
65
 73
8
 40
36.0
 49
24.0
 74
0
 49
-3.0
 74
0
 49
0.0
 74
0
 49
-3.0
 74
0
 49
0.0
 74
0
 49
-3.0
 74
0
 49
0.0
 74
0
 49
-3.0
 74
0
  0
LTYPE
  5
3F
100
AcDbSymbolTableRecord
100
AcDbLinetypeTableRecord
  2
ACAD_ISO12W100
 70
0
  3
ISO dash double-dot __ . . __ . . __ . . __ . . 
 72
65
 73
6
 40
21.0
 49
12.0
 74
0
 49
-3.0
 74
0
 49
0.0
 74
0
 49
-3.0
 74
0
 49
0.0
 74
0
 49
-3.0
 74
0
  0
LTYPE
  5
14
100
AcDbSymbolTableRecord
100
AcDbLinetypeTableRecord
  2
BYBLOCK
 70
0
  3

 72
65
 73
0
 40
0.0
  0
LTYPE
  5
40
100
AcDbSymbolTableRecord
100
AcDbLinetypeTableRecord
  2
PHANTOM
 70
0
  3
Phantom ______  __  __  ______  __  __  ______ 
 72
65
 73
6
 40
63.5000000000000071
 49
31.75
 74
0
 49
-6.3499999999999996
 74
0
 49
6.3499999999999996
 74
0
 49
-6.3499999999999996
 74
0
 49
6.3499999999999996
 74
0
 49
-6.3499999999999996
 74
0
  0
LTYPE
  5
41
100
AcDbSymbolTableRecord
100
AcDbLinetypeTableRecord
  2
PHANTOMX2
 70
0
  3
Phantom (2x) ____________    ____    ____   _
 72
65
 73
6
 40
127.0000000000000142
 49
63.5
 74
0
 49
-12.6999999999999993
 74
0
 49
12.6999999999999993
 74
0
 49
-12.6999999999999993
 74
0
 49
12.6999999999999993
 74
0
 49
-12.6999999999999993
 74
0
  0
LTYPE
  5
42
100
AcDbSymbolTableRecord
100
AcDbLinetypeTableRecord
  2
ACAD_ISO05W100
 70
0
  3
ISO long-dash double-dot ____ .. ____ .. ____ . 
 72
65
 73
6
 40
33.0
 49
24.0
 74
0
 49
-3.0
 74
0
 49
0.0
 74
0
 49
-3.0
 74
0
 49
0.0
 74
0
 49
-3.0
 74
0
  0
LTYPE
  5
43
100
AcDbSymbolTableRecord
100
AcDbLinetypeTableRecord
  2
DIVIDEX2
 70
0
  3
Divide (2x) ________  .  .  ________  .  .  _
 72
65
 73
6
 40
63.5
 49
25.3999999999999986
 74
0
 49
-12.6999999999999993
 74
0
 49
0.0
 74
0
 49
-12.6999999999999993
 74
0
 49
0.0
 74
0
 49
-12.6999999999999993
 74
0
  0
LTYPE
  5
15
100
AcDbSymbolTableRecord
100
AcDbLinetypeTableRecord
  2
BYLAYER
 70
0
  3

 72
65
 73
0
 40
0.0
  0
LTYPE
  5
44
100
AcDbSymbolTableRecord
100
AcDbLinetypeTableRecord
  2
ACAD_ISO11W100
 70
0
  3
ISO double-dash dot __ __ . __ __ . __ __ . __ _
 72
65
 73
6
 40
33.0
 49
12.0
 74
0
 49
-3.0
 74
0
 49
12.0
 74
0
 49
-3.0
 74
0
 49
0.0
 74
0
 49
-3.0
 74
0
  0
LTYPE
  5
45
100
AcDbSymbolTableRecord
100
AcDbLinetypeTableRecord
  2
ACAD_ISO09W100
 70
0
  3
ISO long-dash double-short-dash ____ __ __ ____
 72
65
 73
6
 40
45.0
 49
24.0
 74
0
 49
-3.0
 74
0
 49
6.0
 74
0
 49
-3.0
 74
0
 49
6.0
 74
0
 49
-3.0
 74
0
  0
LTYPE
  5
46
100
AcDbSymbolTableRecord
100
AcDbLinetypeTableRecord
  2
DOT2
 70
0
  3
Dot (.5x) ........................................
 72
65
 73
2
 40
3.1749999999999998
 49
0.0
 74
0
 49
-3.1749999999999998
 74
0
  0
LTYPE
  5
47
100
AcDbSymbolTableRecord
100
AcDbLinetypeTableRecord
  2
ACAD_ISO13W100
 70
0
  3
ISO double-dash double-dot __ __ . . __ __ . . _
 72
65
 73
8
 40
36.0
 49
12.0
 74
0
 49
-3.0
 74
0
 49
12.0
 74
0
 49
-3.0
 74
0
 49
0.0
 74
0
 49
-3.0
 74
0
 49
0.0
 74
0
 49
-3.0
 74
0
  0
LTYPE
  5
48
100
AcDbSymbolTableRecord
100
AcDbLinetypeTableRecord
  2
DASHEDX2
 70
0
  3
Dashed (2x) ____  ____  ____  ____  ____  ___
 72
65
 73
2
 40
38.0999999999999943
 49
25.3999999999999986
 74
0
 49
-12.6999999999999993
 74
0
  0
LTYPE
  5
49
100
AcDbSymbolTableRecord
100
AcDbLinetypeTableRecord
  2
HIDDENX2
 70
0
  3
Hidden (2x) ____ ____ ____ ____ ____ ____ ____ 
 72
65
 73
2
 40
19.0499999999999972
 49
12.6999999999999993
 74
0
 49
-6.3499999999999996
 74
0
  0
LTYPE
  5
4A
100
AcDbSymbolTableRecord
100
AcDbLinetypeTableRecord
  2
ACAD_ISO08W100
 70
0
  3
ISO long-dash short-dash ____ __ ____ __ ____ _
 72
65
 73
4
 40
36.0
 49
24.0
 74
0
 49
-3.0
 74
0
 49
6.0
 74
0
 49
-3.0
 74
0
  0
LTYPE
  5
4B
100
AcDbSymbolTableRecord
100
AcDbLinetypeTableRecord
  2
ACAD_ISO15W100
 70
0
  3
ISO double-dash triple-dot __ __ . . . __ __ . .
 72
65
 73
10
 40
39.0
 49
12.0
 74
0
 49
-3.0
 74
0
 49
12.0
 74
0
 49
-3.0
 74
0
 49
0.0
 74
0
 49
-3.0
 74
0
 49
0.0
 74
0
 49
-3.0
 74
0
 49
0.0
 74
0
 49
-3.0
 74
0
  0
LTYPE
  5
4C
100
AcDbSymbolTableRecord
100
AcDbLinetypeTableRecord
  2
ACAD_ISO10W100
 70
0
  3
ISO dash dot __ . __ . __ . __ . __ . __ . __ . 
 72
65
 73
4
 40
18.0
 49
12.0
 74
0
 49
-3.0
 74
0
 49
0.0
 74
0
 49
-3.0
 74
0
  0
LTYPE
  5
4D
100
AcDbSymbolTableRecord
100
AcDbLinetypeTableRecord
  2
DASHDOTX2
 70
0
  3
Dash dot (2x) ____  .  ____  .  ____  .  ___
 72
65
 73
4
 40
50.7999999999999972
 49
25.3999999999999986
 74
0
 49
-12.6999999999999993
 74
0
 49
0.0
 74
0
 49
-12.6999999999999993
 74
0
  0
LTYPE
  5
4E
100
AcDbSymbolTableRecord
100
AcDbLinetypeTableRecord
  2
PHANTOM2
 70
0
  3
Phantom (.5x) ___ _ _ ___ _ _ ___ _ _ ___ _ _
 72
65
 73
6
 40
31.7500000000000036
 49
15.875
 74
0
 49
-3.1749999999999998
 74
0
 49
3.1749999999999998
 74
0
 49
-3.1749999999999998
 74
0
 49
3.1749999999999998
 74
0
 49
-3.1749999999999998
 74
0
  0
LTYPE
  5
4F
100
AcDbSymbolTableRecord
100
AcDbLinetypeTableRecord
  2
DIVIDE2
 70
0
  3
Divide (.5x) __..__..__..__..__..__..__..__.._
 72
65
 73
6
 40
15.875
 49
6.3499999999999996
 74
0
 49
-3.1749999999999998
 74
0
 49
0.0
 74
0
 49
-3.1749999999999998
 74
0
 49
0.0
 74
0
 49
-3.1749999999999998
 74
0
  0
LTYPE
  5
50
100
AcDbSymbolTableRecord
100
AcDbLinetypeTableRecord
  2
ACAD_ISO02W100
 70
0
  3
ISO dash __ __ __ __ __ __ __ __ __ __ __ __ __
 72
65
 73
2
 40
15.0
 49
12.0
 74
0
 49
-3.0
 74
0
  0
LTYPE
  5
51
100
AcDbSymbolTableRecord
100
AcDbLinetypeTableRecord
  2
DIVIDE
 70
0
  3
Divide ____ . . ____ . . ____ . . ____ . . ____
 72
65
 73
6
 40
31.75
 49
12.6999999999999993
 74
0
 49
-6.3499999999999996
 74
0
 49
0.0
 74
0
 49
-6.3499999999999996
 74
0
 49
0.0
 74
0
 49
-6.3499999999999996
 74
0
  0
LTYPE
  5
52
100
AcDbSymbolTableRecord
100
AcDbLinetypeTableRecord
  2
DOTX2
 70
0
  3
Dot (2x) .  .  .  .  .  .  .  .  .  .  .  .  .  .
 72
65
 73
2
 40
12.6999999999999993
 49
0.0
 74
0
 49
-12.6999999999999993
 74
0
  0
LTYPE
  5
53
100
AcDbSymbolTableRecord
100
AcDbLinetypeTableRecord
  2
BORDER
 70
0
  3
Border __ __ . __ __ . __ __ . __ __ . __ __ .
 72
65
 73
6
 40
44.4499999999999957
 49
12.6999999999999993
 74
0
 49
-6.3499999999999996
 74
0
 49
12.6999999999999993
 74
0
 49
-6.3499999999999996
 74
0
 49
0.0
 74
0
 49
-6.3499999999999996
 74
0
  0
LTYPE
  5
54
100
AcDbSymbolTableRecord
100
AcDbLinetypeTableRecord
  2
DASHED
 70
0
  3
Dashed __ __ __ __ __ __ __ __ __ __ __ __ __ _
 72
65
 73
2
 40
19.0499999999999972
 49
12.6999999999999993
 74
0
 49
-6.3499999999999996
 74
0
  0
LTYPE
  5
55
100
AcDbSymbolTableRecord
100
AcDbLinetypeTableRecord
  2
HIDDEN
 70
0
  3
Hidden __ __ __ __ __ __ __ __ __ __ __ __ __ __
 72
65
 73
2
 40
9.5249999999999986
 49
6.3499999999999996
 74
0
 49
-3.1749999999999998
 74
0
  0
LTYPE
  5
56
100
AcDbSymbolTableRecord
100
AcDbLinetypeTableRecord
  2
DOT
 70
0
  3
Dot . . . . . . . . . . . . . . . . . . . . . . . .
 72
65
 73
2
 40
6.3499999999999996
 49
0.0
 74
0
 49
-6.3499999999999996
 74
0
  0
ENDTAB
  0
TABLE
  2
LAYER
  5
2
100
AcDbSymbolTable
 70
9
  0
LAYER
  5
57
100
AcDbSymbolTableRecord
100
AcDbLayerTableRecord
  2
Dimensions_BackPanel
 70
1
 62
9
420
12632256
  6
Continuous
370
0
390
F
  0
LAYER
  5
58
100
AcDbSymbolTableRecord
100
AcDbLayerTableRecord
  2
Construction
 70
1
 62
4
420
65535
  6
DASHDOT2
370
0
390
F
  0
LAYER
  5
59
100
AcDbSymbolTableRecord
100
AcDbLayerTableRecord
  2
Invisible Layer
 70
1
 62
7
420
0
  6
Continuous
370
25
390
F
  0
LAYER
  5
5A
100
AcDbSymbolTableRecord
100
AcDbLayerTableRecord
  2
Dimensions_MiddlePanel
 70
0
 62
9
420
12632256
  6
Continuous
370
0
390
F
  0
LAYER
  5
5B
100
AcDbSymbolTableRecord
100
AcDbLayerTableRecord
  2
Middle Panel
 70
0
 62
3
420
65280
  6
Continuous
370
25
390
F
  0
LAYER
  5
5C
100
AcDbSymbolTableRecord
100
AcDbLayerTableRecord
  2
Front Panel
 70
1
 62
9
420
12632256
  6
Continuous
370
25
390
F
  0
LAYER
  5
5D
100
AcDbSymbolTableRecord
100
AcDbLayerTableRecord
  2
Back Panel
 70
1
 62
30
420
16744192
  6
Continuous
370
25
390
F
  0
LAYER
  5
5E
100
AcDbSymbolTableRecord
100
AcDbLayerTableRecord
  2
Dimensions_FrontPanel
 70
1
 62
252
420
10526884
  6
Continuous
370
0
390
F
  0
LAYER
  5
10
100
AcDbSymbolTableRecord
100
AcDbLayerTableRecord
  2
0
 70
4
 62
7
420
16777215
  6
Continuous
370
25
390
F
  0
ENDTAB
  0
TABLE
  2
STYLE
  5
3
100
AcDbSymbolTable
 70
1
  0
STYLE
  5
5F
100
AcDbSymbolTableRecord
100
AcDbTextStyleTableRecord
  2
Standard
 70
0
 40
0.0
 41
1.0
 50
0.0
 71
0
 42
2.5
  3

  4

1001
ACAD
1000
txt
1071
0
  0
ENDTAB
  0
TABLE
  2
VIEW
  5
6
100
AcDbSymbolTable
 70
0
  0
ENDTAB
  0
TABLE
  2
UCS
  5
7
100
AcDbSymbolTable
 70
0
  0
ENDTAB
  0
TABLE
  2
APPID
  5
9
100
AcDbSymbolTable
 70
1
  0
APPID
  5
12
100
AcDbSymbolTableRecord
100
AcDbRegAppTableRecord
  2
ACAD
 70
0
  0
APPID
  5
60
100
AcDbSymbolTableRecord
100
AcDbRegAppTableRecord
  2
QCAD
 70
0
  0
ENDTAB
  0
TABLE
  2
DIMSTYLE
  5
A
100
AcDbSymbolTable
 70
1
100
AcDbDimStyleTable
 71
0
  0
DIMSTYLE
105
27
100
AcDbSymbolTableRecord
100
AcDbDimStyleTableRecord
  2
Standard
 41
2.5
 42
0.625
 43
3.75
 44
1.25
 70
0
 73
0
 74
0
 77
1
 78
8
140
2.5
141
2.5
143
0.03937007874016
147
0.625
171
3
172
1
271
2
272
2
274
3
278
44
283
0
284
8
340
5F
  0
ENDTAB
  0
TABLE
  2
BLOCK_RECORD
  5
1
100
AcDbSymbolTable
 70
1
  0
BLOCK_RECORD
  5
1F
100
AcDbSymbolTableRecord
100
AcDbBlockTableRecord
  2
*Model_Space
340
22
  0
BLOCK_RECORD
  5
1B
100
AcDbSymbolTableRecord
100
AcDbBlockTableRecord
  2
*Paper_Space
340
1E
  0
BLOCK_RECORD
  5
23
100
AcDbSymbolTableRecord
100
AcDbBlockTableRecord
  2
*Paper_Space0
340
26
  0
BLOCK_RECORD
  5
61
100
AcDbSymbolTableRecord
100
AcDbBlockTableRecord
  2
GraphicDisplay_Side
340
0
  0
BLOCK_RECORD
  5
62
100
AcDbSymbolTableRecord
100
AcDbBlockTableRecord
  2
Pushbutton_Side
340
0
  0
BLOCK_RECORD
  5
63
100
AcDbSymbolTableRecord
100
AcDbBlockTableRecord
  2
RotaryEncoder_Side
340
0
  0
ENDTAB
  0
ENDSEC
  0
SECTION
  2
BLOCKS
  0
BLOCK
  5
20
100
AcDbEntity
  8
0
100
AcDbBlockBegin
  2
*Model_Space
 70
0
 10
0.0
 20
0.0
 30
0.0
  3
*Model_Space
  1

  0
ENDBLK
  5
21
100
AcDbEntity
  8
0
100
AcDbBlockEnd
  0
BLOCK
  5
1C
100
AcDbEntity
 67
1
  8
0
100
AcDbBlockBegin
  2
*Paper_Space
 70
0
 10
0.0
 20
0.0
 30
0.0
  3
*Paper_Space
  1

  0
ENDBLK
  5
1D
100
AcDbEntity
 67
1
  8
0
100
AcDbBlockEnd
  0
BLOCK
  5
24
100
AcDbEntity
  8
0
100
AcDbBlockBegin
  2
*Paper_Space0
 70
0
 10
0.0
 20
0.0
 30
0.0
  3
*Paper_Space0
  1

  0
ENDBLK
  5
25
100
AcDbEntity
  8
0
100
AcDbBlockEnd
  0
BLOCK
  5
64
100
AcDbEntity
  8
0
100
AcDbBlockBegin
  2
GraphicDisplay_Side
 70
0
 10
0.0
 20
0.0
 30
0.0
  3
GraphicDisplay_Side
  1

  0
LWPOLYLINE
  5
65
100
AcDbEntity
  8
0
 62
256
370
0
 48
1.0
  6
BYLAYER
100
AcDbPolyline
 90
4
 70
129
 10
0.0
 20
26.0
 10
1.0
 20
26.0
 10
1.0
 20
0.0
 10
0.0
 20
0.0
  0
LWPOLYLINE
  5
66
100
AcDbEntity
  8
0
 62
256
370
0
 48
1.0
  6
BYLAYER
100
AcDbPolyline
 90
4
 70
129
 10
1.0
 20
22.0
 10
2.0
 20
22.0
 10
2.0
 20
9.0
 10
1.0
 20
9.0
  0
LWPOLYLINE
  5
67
100
AcDbEntity
  8
0
 62
256
370
0
 48
1.0
  6
BYLAYER
100
AcDbPolyline
 90
4
 70
129
 10
0.0
 20
26.0
 10
-2.9000000000000057
 20
26.0
 10
-2.9000000000000057
 20
23.5
 10
0.0
 20
23.5
  0
LWPOLYLINE
  5
68
100
AcDbEntity
  8
0
 62
256
370
0
 48
1.0
  6
BYLAYER
100
AcDbPolyline
 90
4
 70
129
 10
-2.9000000000000057
 20
25.0
 10
-8.1000000000000085
 20
25.0
 10
-8.1000000000000085
 20
24.5
 10
-2.9000000000000057
 20
24.5
  0
ENDBLK
  5
69
100
AcDbEntity
  8
0
100
AcDbBlockEnd
  0
BLOCK
  5
6A
100
AcDbEntity
  8
0
100
AcDbBlockBegin
  2
Pushbutton_Side
 70
0
 10
0.0
 20
0.0
 30
0.0
  3
Pushbutton_Side
  1

  0
LWPOLYLINE
  5
6B
100
AcDbEntity
  8
0
 62
0
370
0
 48
1.0
  6
BYLAYER
100
AcDbPolyline
 90
4
 70
129
 10
0.0
 20
6.0
 10
3.0
 20
6.0
 10
3.0
 20
0.0
 10
0.0
 20
0.0
  0
LWPOLYLINE
  5
6C
100
AcDbEntity
  8
0
 62
0
370
0
 48
1.0
  6
BYLAYER
100
AcDbPolyline
 90
4
 70
129
 10
3.0
 20
5.0
 10
4.0
 20
5.0
 10
4.0
 20
1.0
 10
3.0
 20
1.0
  0
ENDBLK
  5
6D
100
AcDbEntity
  8
0
100
AcDbBlockEnd
  0
BLOCK
  5
6E
100
AcDbEntity
  8
0
100
AcDbBlockBegin
  2
RotaryEncoder_Side
 70
0
 10
0.0
 20
0.0
 30
0.0
  3
RotaryEncoder_Side
  1

  0
LWPOLYLINE
  5
6F
100
AcDbEntity
  8
0
 62
256
370
0
 48
1.0
  6
BYLAYER
100
AcDbPolyline
 90
4
 70
129
 10
0.0
 20
26.0
 10
1.0
 20
26.0
 10
1.0
 20
0.0
 10
0.0
 20
0.0
  0
LWPOLYLINE
  5
70
100
AcDbEntity
  8
0
 62
256
370
0
 48
1.0
  6
BYLAYER
100
AcDbPolyline
 90
4
 70
129
 10
1.0
 20
25.0
 10
4.0
 20
25.0
 10
4.0
 20
23.0
 10
1.0
 20
23.0
  0
LWPOLYLINE
  5
71
100
AcDbEntity
  8
0
 62
256
370
0
 48
1.0
  6
BYLAYER
100
AcDbPolyline
 90
4
 70
129
 10
2.5
 20
25.0
 10
3.0
 20
25.0
 10
3.0
 20
30.0
 10
2.5
 20
30.0
  0
LWPOLYLINE
  5
72
100
AcDbEntity
  8
0
 62
256
370
0
 48
1.0
  6
BYLAYER
100
AcDbPolyline
 90
4
 70
129
 10
1.0
 20
17.0
 10
8.0
 20
17.0
 10
8.0
 20
5.0
 10
1.0
 20
5.0
  0
LWPOLYLINE
  5
73
100
AcDbEntity
  8
0
 62
256
370
0
 48
1.0
  6
BYLAYER
100
AcDbPolyline
 90
4
 70
129
 10
8.0
 20
14.0
 10
28.0
 20
14.0
 10
28.0
 20
8.0
 10
8.0
 20
8.0
  0
ENDBLK
  5
74
100
AcDbEntity
  8
0
100
AcDbBlockEnd
  0
ENDSEC
  0
SECTION
  2
ENTITIES
  0
LWPOLYLINE
  5
75
100
AcDbEntity
  8
0
 62
256
370
-1
 48
1.0
  6
BYLAYER
100
AcDbPolyline
 90
4
 70
129
 10
0.0
 20
0.0
 10
25.0
 20
0.0
 10
25.0
 20
-27.0
 10
0.0
 20
-27.0
  0
LWPOLYLINE
  5
76
100
AcDbEntity
  8
0
 62
256
370
-1
 48
1.0
  6
BYLAYER
100
AcDbPolyline
 90
4
 70
129
 10
0.0
 20
-5.0
 10
25.0
 20
-5.0
 10
25.0
 20
-18.0
 10
0.0
 20
-18.0
  0
CIRCLE
  5
77
100
AcDbEntity
  8
0
 62
256
370
-1
 48
1.0
  6
BYLAYER
100
AcDbCircle
 10
2.0
 20
-2.0
 30
0.0
 40
1.5
  0
CIRCLE
  5
78
100
AcDbEntity
  8
Back Panel
 62
256
370
-1
 48
1.0
  6
BYLAYER
100
AcDbCircle
 10
-17.0
 20
1.0
 30
0.0
 40
1.5
  0
CIRCLE
  5
79
100
AcDbEntity
  8
Back Panel
 62
256
370
-1
 48
1.0
  6
BYLAYER
100
AcDbCircle
 10
-17.0
 20
-31.0
 30
0.0
 40
1.5
  0
CIRCLE
  5
7A
100
AcDbEntity
  8
Back Panel
 62
256
370
-1
 48
1.0
  6
BYLAYER
100
AcDbCircle
 10
61.0
 20
-31.0
 30
0.0
 40
1.5
  0
CIRCLE
  5
7B
100
AcDbEntity
  8
Back Panel
 62
256
370
-1
 48
1.0
  6
BYLAYER
100
AcDbCircle
 10
61.0
 20
1.0
 30
0.0
 40
1.5
  0
CIRCLE
  5
7C
100
AcDbEntity
  8
Front Panel
 62
256
370
-1
 48
1.0
  6
BYLAYER
100
AcDbCircle
 10
-17.0
 20
1.0
 30
0.0
 40
1.5
  0
CIRCLE
  5
7D
100
AcDbEntity
  8
Front Panel
 62
256
370
-1
 48
1.0
  6
BYLAYER
100
AcDbCircle
 10
61.0
 20
1.0
 30
0.0
 40
1.5
  0
CIRCLE
  5
7E
100
AcDbEntity
  8
Front Panel
 62
256
370
-1
 48
1.0
  6
BYLAYER
100
AcDbCircle
 10
61.0
 20
-31.0
 30
0.0
 40
1.5
  0
CIRCLE
  5
7F
100
AcDbEntity
  8
Front Panel
 62
256
370
-1
 48
1.0
  6
BYLAYER
100
AcDbCircle
 10
-17.0
 20
-31.0
 30
0.0
 40
1.5
  0
CIRCLE
  5
80
100
AcDbEntity
  8
Back Panel
 62
256
370
-1
 48
1.0
  6
BYLAYER
100
AcDbCircle
 10
-16.0
 20
-8.0
 30
0.0
 40
1.5
  0
CIRCLE
  5
81
100
AcDbEntity
  8
Back Panel
 62
256
370
-1
 48
1.0
  6
BYLAYER
100
AcDbCircle
 10
-8.0
 20
-8.0
 30
0.0
 40
1.5
  0
CIRCLE
  5
82
100
AcDbEntity
  8
Back Panel
 62
256
370
-1
 48
1.0
  6
BYLAYER
100
AcDbCircle
 10
-7.9999999999999982
 20
-25.0
 30
0.0
 40
1.5
  0
CIRCLE
  5
83
100
AcDbEntity
  8
Back Panel
 62
256
370
-1
 48
1.0
  6
BYLAYER
100
AcDbCircle
 10
-16.0
 20
-25.0
 30
0.0
 40
1.5
  0
CIRCLE
  5
84
100
AcDbEntity
  8
0
 62
256
370
-1
 48
1.0
  6
BYLAYER
100
AcDbCircle
 10
23.0
 20
-2.0
 30
0.0
 40
1.5
  0
CIRCLE
  5
85
100
AcDbEntity
  8
0
 62
256
370
-1
 48
1.0
  6
BYLAYER
100
AcDbCircle
 10
57.0
 20
-6.0
 30
0.0
 40
1.5
  0
CIRCLE
  5
86
100
AcDbEntity
  8
0
 62
256
370
-1
 48
1.0
  6
BYLAYER
100
AcDbCircle
 10
57.0
 20
-20.0
 30
0.0
 40
1.5
  0
CIRCLE
  5
87
100
AcDbEntity
  8
0
 62
256
370
-1
 48
1.0
  6
BYLAYER
100
AcDbCircle
 10
2.0
 20
-25.0
 30
0.0
 40
1.5
  0
CIRCLE
  5
88
100
AcDbEntity
  8
0
 62
256
370
-1
 48
1.0
  6
BYLAYER
100
AcDbCircle
 10
23.0
 20
-25.0
 30
0.0
 40
1.5
  0
LWPOLYLINE
  5
89
100
AcDbEntity
  8
0
 62
256
370
-1
 48
1.0
  6
BYLAYER
100
AcDbPolyline
 90
4
 70
129
 10
40.0
 20
-1.0
 10
59.0
 20
-1.0
 10
59.0
 20
-27.0
 10
40.0
 20
-27.0
  0
XLINE
  5
8A
100
AcDbEntity
  8
Construction
 62
256
370
0
 48
1.0
  6
BYLAYER
100
AcDbLine
 10
43.0
 20
-16.0
 30
0.0
 11
1.0
 21
0.0
 31
0.0
  0
CIRCLE
  5
8B
100
AcDbEntity
  8
0
 62
256
370
-1
 48
1.0
  6
BYLAYER
100
AcDbCircle
 10
48.0
 20
-16.0
 30
0.0
 40
3.0
  0
XLINE
  5
8C
100
AcDbEntity
  8
Construction
 62
256
370
0
 48
1.0
  6
BYLAYER
100
AcDbLine
 10
2.0
 20
-25.0
 30
0.0
 11
1.0
 21
0.0
 31
0.0
  0
XLINE
  5
8D
100
AcDbEntity
  8
Construction
 62
256
370
0
 48
1.0
  6
BYLAYER
100
AcDbLine
 10
2.0
 20
-2.0
 30
0.0
 11
1.0
 21
0.0
 31
0.0
  0
XLINE
  5
8E
100
AcDbEntity
  8
Construction
 62
256
370
0
 48
1.0
  6
BYLAYER
100
AcDbLine
 10
57.0
 20
-20.0
 30
0.0
 11
1.0
 21
0.0
 31
0.0
  0
XLINE
  5
8F
100
AcDbEntity
  8
Construction
 62
256
370
0
 48
1.0
  6
BYLAYER
100
AcDbLine
 10
2.0
 20
-2.0
 30
0.0
 11
0.0
 21
1.0
 31
0.0
  0
XLINE
  5
90
100
AcDbEntity
  8
Construction
 62
256
370
0
 48
1.0
  6
BYLAYER
100
AcDbLine
 10
23.0
 20
-2.0
 30
0.0
 11
0.0
 21
1.0
 31
0.0
  0
XLINE
  5
91
100
AcDbEntity
  8
Construction
 62
256
370
0
 48
1.0
  6
BYLAYER
100
AcDbLine
 10
57.0
 20
-5.0
 30
0.0
 11
0.0
 21
1.0
 31
0.0
  0
XLINE
  5
92
100
AcDbEntity
  8
Construction
 62
256
370
0
 48
1.0
  6
BYLAYER
100
AcDbLine
 10
48.0
 20
-15.0
 30
0.0
 11
0.0
 21
1.0
 31
0.0
  0
LWPOLYLINE
  5
93
100
AcDbEntity
  8
0
 62
256
370
0
 48
1.0
  6
BYLAYER
100
AcDbPolyline
 90
4
 70
129
 10
-15.0
 20
-13.0
 10
-9.0
 20
-13.0
 10
-9.0
 20
-19.0
 10
-15.0
 20
-19.0
  0
CIRCLE
  5
94
100
AcDbEntity
  8
0
 62
256
370
0
 48
1.0
  6
BYLAYER
100
AcDbCircle
 10
-12.0
 20
-16.0
 30
0.0
 40
2.0
  0
XLINE
  5
95
100
AcDbEntity
  8
Construction
 62
256
370
0
 48
1.0
  6
BYLAYER
100
AcDbLine
 10
-14.0
 20
-6.0
 30
0.0
 11
1.0
 21
0.0
 31
0.0
  0
LWPOLYLINE
  5
96
100
AcDbEntity
  8
0
 62
256
370
0
 48
1.0
  6
BYLAYER
100
AcDbPolyline
 90
4
 70
129
 10
54.0
 20
-10.0
 10
42.0
 20
-10.0
 10
42.0
 20
-22.0
 10
54.0
 20
-22.0
  0
INSERT
  5
97
100
AcDbEntity
  8
0
 62
1
420
16711680
370
0
 48
1.0
  6
BYLAYER
100
AcDbBlockReference
  2
RotaryEncoder_Side
 10
93.0
 20
-27.0
 30
0.0
  0
INSERT
  5
98
100
AcDbEntity
  8
0
 62
0
370
0
 48
1.0
  6
BYLAYER
100
AcDbBlockReference
  2
Pushbutton_Side
 10
103.0
 20
-19.0
 30
0.0
  0
INSERT
  5
99
100
AcDbEntity
  8
0
 62
4
420
65535
370
0
 48
1.0
  6
BYLAYER
100
AcDbBlockReference
  2
GraphicDisplay_Side
 10
102.0
 20
-27.0
 30
0.0
  0
LWPOLYLINE
  5
9A
100
AcDbEntity
  8
Front Panel
 62
256
370
0
 48
1.0
  6
BYLAYER
100
AcDbPolyline
 90
4
 70
129
 10
104.0
 20
4.0
 10
105.0278813620279834
 20
4.0
 10
105.0
 20
-34.0
 10
104.0
 20
-34.0
  0
LWPOLYLINE
  5
9B
100
AcDbEntity
  8
Back Panel
 62
256
370
0
 48
1.0
  6
BYLAYER
100
AcDbPolyline
 90
4
 70
129
 10
85.0
 20
3.9326308801103096
 10
87.0
 20
3.9326308801103096
 10
87.0
 20
-34.0673691198896904
 10
85.0
 20
-34.0673691198896904
  0
HATCH
  5
9C
100
AcDbEntity
  8
Back Panel
 62
256
370
0
 48
1.0
  6
BYLAYER
100
AcDbHatch
 10
0.0
 20
0.0
 30
0.0
210
0.0
220
0.0
230
1.0
  2
LINE
 70
0
 71
0
 91
1
 92
1
 93
4
 72
1
 10
85.0
 20
3.9326308801103096
 11
87.0
 21
3.9326308801103096
 72
1
 10
87.0
 20
3.9326308801103096
 11
87.0
 21
-34.0673691198896904
 72
1
 10
87.0
 20
-34.0673691198896904
 11
85.0
 21
-34.0673691198896904
 72
1
 10
85.0
 20
-34.0673691198896904
 11
85.0
 21
3.9326308801103096
 97
0
 75
0
 76
1
 52
45.0
 41
0.25
 77
0
 78
1
 53
45.0
 43
0.0
 44
0.0
 45
-0.0883883476483184
 46
0.0883883476483185
 79
0
 98
0
1001
ACAD
1010
0.0
1020
0.0
1030
0
  0
HATCH
  5
9D
100
AcDbEntity
  8
Front Panel
 62
256
370
0
 48
1.0
  6
BYLAYER
100
AcDbHatch
 10
0.0
 20
0.0
 30
0.0
210
0.0
220
0.0
230
1.0
  2
LINE
 70
0
 71
0
 91
1
 92
1
 93
4
 72
1
 10
104.0
 20
4.0
 11
105.0278813620279834
 21
4.0
 72
1
 10
105.0278813620279834
 20
4.0
 11
105.0
 21
-34.0
 72
1
 10
105.0
 20
-34.0
 11
104.0
 21
-34.0
 72
1
 10
104.0
 20
-34.0
 11
104.0
 21
4.0
 97
0
 75
0
 76
1
 52
45.0
 41
0.25
 77
0
 78
1
 53
45.0
 43
0.0
 44
0.0
 45
-0.0883883476483184
 46
0.0883883476483185
 79
0
 98
0
1001
ACAD
1010
0.0
1020
0.0
1030
0
  0
LWPOLYLINE
  5
9E
100
AcDbEntity
  8
0
 62
1
420
16711680
370
0
 48
1.0
  6
BYLAYER
100
AcDbPolyline
 90
4
 70
129
 10
87.0
 20
-4.0
 10
93.0
 20
-4.0476252409588191
 10
93.0
 20
-8.0
 10
87.0
 20
-8.0
  0
LWPOLYLINE
  5
9F
100
AcDbEntity
  8
0
 62
1
420
16711680
370
0
 48
1.0
  6
BYLAYER
100
AcDbPolyline
 90
4
 70
129
 10
87.0
 20
-18.0
 10
93.0
 20
-18.0
 10
93.0
 20
-22.0
 10
87.0
 20
-22.0
  0
HATCH
  5
A0
100
AcDbEntity
  8
0
 62
1
420
16711680
370
0
 48
1.0
  6
BYLAYER
100
AcDbHatch
 10
0.0
 20
0.0
 30
0.0
210
0.0
220
0.0
230
1.0
  2
NET
 70
0
 71
0
 91
1
 92
1
 93
4
 72
1
 10
87.0
 20
-4.0
 11
93.0
 21
-4.0476252409588191
 72
1
 10
93.0
 20
-4.0476252409588191
 11
93.0
 21
-8.0
 72
1
 10
93.0
 20
-8.0
 11
87.0
 21
-8.0
 72
1
 10
87.0
 20
-8.0
 11
87.0
 21
-4.0
 97
0
 75
0
 76
1
 52
45.0
 41
0.25
 77
0
 78
1
 53
45.0
 43
0.0
 44
0.0
 45
-0.0883883476483184
 46
0.0883883476483185
 79
0
 98
0
1001
ACAD
1010
0.0
1020
0.0
1030
0
  0
HATCH
  5
A1
100
AcDbEntity
  8
0
 62
1
420
16711680
370
0
 48
1.0
  6
BYLAYER
100
AcDbHatch
 10
0.0
 20
0.0
 30
0.0
210
0.0
220
0.0
230
1.0
  2
NET
 70
0
 71
0
 91
1
 92
1
 93
4
 72
1
 10
87.0
 20
-18.0
 11
93.0
 21
-18.0
 72
1
 10
93.0
 20
-18.0
 11
93.0
 21
-22.0
 72
1
 10
93.0
 20
-22.0
 11
87.0
 21
-22.0
 72
1
 10
87.0
 20
-22.0
 11
87.0
 21
-18.0
 97
0
 75
0
 76
1
 52
45.0
 41
0.25
 77
0
 78
1
 53
45.0
 43
0.0
 44
0.0
 45
-0.0883883476483184
 46
0.0883883476483185
 79
0
 98
0
1001
ACAD
1010
0.0
1020
0.0
1030
0
  0
LWPOLYLINE
  5
A2
100
AcDbEntity
  8
0
 62
1
420
16711680
370
0
 48
1.0
  6
BYLAYER
100
AcDbPolyline
 90
4
 70
129
 10
87.0
 20
0.0
 10
102.0
 20
0.0
 10
102.0
 20
-5.0
 10
87.0
 20
-5.0476252409588191
  0
LWPOLYLINE
  5
A3
100
AcDbEntity
  8
0
 62
1
420
16711680
370
0
 48
1.0
  6
BYLAYER
100
AcDbPolyline
 90
4
 70
129
 10
87.0207428131284928
 20
3.5114341907227873
 10
104.0
 20
3.5114341907227882
 10
104.0
 20
-1.4885658092772118
 10
87.0207428131284928
 20
-1.5361910502360319
  0
LWPOLYLINE
  5
A4
100
AcDbEntity
  8
0
 62
1
420
16711680
370
0
 48
1.0
  6
BYLAYER
100
AcDbPolyline
 90
4
 70
129
 10
87.0
 20
-28.4761873795205922
 10
104.0
 20
-28.4761873795205886
 10
104.0
 20
-33.4761873795205886
 10
87.0
 20
-33.5238126204794114
  0
LWPOLYLINE
  5
A5
100
AcDbEntity
  8
0
 62
1
420
16711680
370
0
 48
1.0
  6
BYLAYER
100
AcDbPolyline
 90
4
 70
129
 10
87.0
 20
-22.4999999999999964
 10
102.0
 20
-22.5
 10
102.0395229039285141
 20
-27.4462312114551423
 10
87.0
 20
-27.4982655436316747
  0
HATCH
  5
A6
100
AcDbEntity
  8
0
 62
1
420
16711680
370
0
 48
1.0
  6
BYLAYER
100
AcDbHatch
 10
0.0
 20
0.0
 30
0.0
210
0.0
220
0.0
230
1.0
  2
NET
 70
0
 71
0
 91
1
 92
1
 93
4
 72
1
 10
87.0
 20
-22.5
 11
102.0
 21
-22.5000000000001101
 72
1
 10
102.0
 20
-22.5000000000001101
 11
102.0395229039285141
 21
-27.4462312114551423
 72
1
 10
102.0395229039285141
 20
-27.4462312114551423
 11
87.0
 21
-27.4982655436316747
 72
1
 10
87.0
 20
-27.4982655436316747
 11
87.0
 21
-22.5
 97
0
 75
0
 76
1
 52
45.0
 41
0.25
 77
0
 78
1
 53
45.0
 43
0.0
 44
0.0
 45
-0.0883883476483184
 46
0.0883883476483185
 79
0
 98
0
1001
ACAD
1010
0.0
1020
0.0
1030
0
  0
HATCH
  5
A7
100
AcDbEntity
  8
0
 62
1
420
16711680
370
0
 48
1.0
  6
BYLAYER
100
AcDbHatch
 10
0.0
 20
0.0
 30
0.0
210
0.0
220
0.0
230
1.0
  2
NET
 70
0
 71
0
 91
1
 92
1
 93
4
 72
1
 10
87.0
 20
0.0
 11
102.0
 21
0.0
 72
1
 10
102.0
 20
0.0
 11
102.0
 21
-5.0
 72
1
 10
102.0
 20
-5.0
 11
87.0000000000000142
 21
-5.0476252409588183
 72
1
 10
87.0000000000000142
 20
-5.0476252409588183
 11
87.0
 21
0.0
 97
0
 75
0
 76
1
 52
45.0
 41
0.25
 77
0
 78
1
 53
45.0
 43
0.0
 44
0.0
 45
-0.0883883476483184
 46
0.0883883476483185
 79
0
 98
0
1001
ACAD
1010
0.0
1020
0.0
1030
0
  0
HATCH
  5
A8
100
AcDbEntity
  8
0
 62
1
420
16711680
370
0
 48
1.0
  6
BYLAYER
100
AcDbHatch
 10
0.0
 20
0.0
 30
0.0
210
0.0
220
0.0
230
1.0
  2
CLAY
 70
0
 71
0
 91
1
 92
1
 93
4
 72
1
 10
87.0207428131284928
 20
3.5114341907227873
 11
104.0
 21
3.5114341907227886
 72
1
 10
104.0
 20
3.5114341907227886
 11
103.9999999999999858
 21
-1.5180094225625163
 72
1
 10
103.9999999999999858
 20
-1.5180094225625163
 11
87.020742813128507
 21
-1.536191050236031
 72
1
 10
87.020742813128507
 20
-1.536191050236031
 11
87.0207428131284928
 21
3.5114341907227873
 97
0
 75
0
 76
1
 52
0.0
 41
0.25
 77
0
 78
1
 53
45.0
 43
0.0
 44
0.0
 45
-0.0883883476483184
 46
0.0883883476483185
 79
0
 98
0
1001
ACAD
1010
0.0
1020
0.0
1030
0
  0
HATCH
  5
A9
100
AcDbEntity
  8
0
 62
1
420
16711680
370
0
 48
1.0
  6
BYLAYER
100
AcDbHatch
 10
0.0
 20
0.0
 30
0.0
210
0.0
220
0.0
230
1.0
  2
CLAY
 70
0
 71
0
 91
1
 92
1
 93
4
 72
1
 10
87.0
 20
-28.4761873795205922
 11
104.0
 21
-28.4761873795205886
 72
1
 10
104.0
 20
-28.4761873795205886
 11
104.0
 21
-33.5056309928058909
 72
1
 10
104.0
 20
-33.5056309928058909
 11
87.0
 21
-33.5238126204794114
 72
1
 10
87.0
 20
-33.5238126204794114
 11
87.0
 21
-28.4761873795205922
 97
0
 75
0
 76
1
 52
0.0
 41
0.25
 77
0
 78
1
 53
45.0
 43
0.0
 44
0.0
 45
-0.0883883476483184
 46
0.0883883476483185
 79
0
 98
0
1001
ACAD
1010
0.0
1020
0.0
1030
0
  0
LWPOLYLINE
  5
AA
100
AcDbEntity
  8
0
 62
1
420
16711680
370
0
 48
1.0
  6
BYLAYER
100
AcDbPolyline
 90
6
 70
129
 10
59.3094010767585047
 20
-20.0000000000000071
 10
58.1547005383792595
 20
-18.0000000000000071
 10
55.8452994616207548
 20
-18.0
 10
54.6905989232414953
 20
-19.9999999999999929
 10
55.8452994616207405
 20
-21.9999999999999929
 10
58.1547005383792452
 20
-22.0
  0
LWPOLYLINE
  5
AB
100
AcDbEntity
  8
0
 62
1
420
16711680
370
0
 48
1.0
  6
BYLAYER
100
AcDbPolyline
 90
6
 70
129
 10
25.3094010767585047
 20
-25.0000000000000071
 10
24.1547005383792595
 20
-23.0000000000000071
 10
21.8452994616207548
 20
-23.0
 10
20.6905989232414953
 20
-24.9999999999999929
 10
21.8452994616207405
 20
-26.9999999999999929
 10
24.1547005383792452
 20
-27.0
  0
LWPOLYLINE
  5
AC
100
AcDbEntity
  8
0
 62
1
420
16711680
370
0
 48
1.0
  6
BYLAYER
100
AcDbPolyline
 90
6
 70
129
 10
25.3094010767585047
 20
-2.0000000000000071
 10
24.1547005383792595
 20
-0.0000000000000071
 10
21.8452994616207548
 20
0.0
 10
20.6905989232414953
 20
-1.9999999999999911
 10
21.8452994616207405
 20
-3.9999999999999929
 10
24.1547005383792452
 20
-4.0
  0
LWPOLYLINE
  5
AD
100
AcDbEntity
  8
0
 62
1
420
16711680
370
0
 48
1.0
  6
BYLAYER
100
AcDbPolyline
 90
6
 70
129
 10
4.3094010767585047
 20
-2.0000000000000071
 10
3.1547005383792595
 20
-0.0000000000000071
 10
0.8452994616207548
 20
0.0
 10
-0.3094010767585047
 20
-1.9999999999999911
 10
0.8452994616207405
 20
-3.9999999999999929
 10
3.1547005383792452
 20
-4.0
  0
LWPOLYLINE
  5
AE
100
AcDbEntity
  8
0
 62
1
420
16711680
370
0
 48
1.0
  6
BYLAYER
100
AcDbPolyline
 90
6
 70
129
 10
4.3094010767585047
 20
-25.0000000000000071
 10
3.1547005383792595
 20
-23.0000000000000071
 10
0.8452994616207548
 20
-23.0
 10
-0.3094010767585047
 20
-24.9999999999999929
 10
0.8452994616207405
 20
-26.9999999999999929
 10
3.1547005383792452
 20
-27.0
  0
LWPOLYLINE
  5
AF
100
AcDbEntity
  8
0
 62
1
420
16711680
370
0
 48
1.0
  6
BYLAYER
100
AcDbPolyline
 90
6
 70
129
 10
59.3094010767585047
 20
-6.0000000000000071
 10
58.1547005383792595
 20
-4.0000000000000071
 10
55.8452994616207548
 20
-4.0
 10
54.6905989232414953
 20
-5.9999999999999911
 10
55.8452994616207405
 20
-7.9999999999999929
 10
58.1547005383792452
 20
-8.0
  0
LWPOLYLINE
  5
B0
100
AcDbEntity
  8
Front Panel
 62
256
370
0
 48
1.0
  6
BYLAYER
100
AcDbPolyline
 90
4
 70
129
 10
-20.0
 20
4.0
 10
64.0
 20
4.0
 10
64.0
 20
-34.0
 10
-20.0
 20
-34.0
  0
LWPOLYLINE
  5
B1
100
AcDbEntity
  8
Front Panel
 62
256
370
0
 48
1.0
  6
BYLAYER
100
AcDbPolyline
 90
4
 70
129
 10
0.0
 20
-5.0
 10
25.0
 20
-5.0
 10
25.0
 20
-18.0
 10
0.0
 20
-18.0
  0
CIRCLE
  5
B2
100
AcDbEntity
  8
Front Panel
 62
256
370
0
 48
1.0
  6
BYLAYER
100
AcDbCircle
 10
-12.0
 20
-16.0
 30
0.0
 40
2.2360679774997898
  0
CIRCLE
  5
B3
100
AcDbEntity
  8
Front Panel
 62
256
370
0
 48
1.0
  6
BYLAYER
100
AcDbCircle
 10
48.0
 20
-16.0
 30
0.0
 40
2.8284271247461903
  0
LWPOLYLINE
  5
B4
100
AcDbEntity
  8
Back Panel
 62
256
370
0
 48
1.0
  6
BYLAYER
100
AcDbPolyline
 90
4
 70
129
 10
-20.0
 20
4.0
 10
64.0
 20
4.0
 10
64.0
 20
-34.0
 10
-20.0
 20
-34.0
  0
CIRCLE
  5
B5
100
AcDbEntity
  8
Back Panel
 62
256
370
0
 48
1.0
  6
BYLAYER
100
AcDbCircle
 10
2.0
 20
-2.0
 30
0.0
 40
2.0
  0
CIRCLE
  5
B6
100
AcDbEntity
  8
Back Panel
 62
256
370
0
 48
1.0
  6
BYLAYER
100
AcDbCircle
 10
23.0
 20
-2.0
 30
0.0
 40
2.0
  0
CIRCLE
  5
B7
100
AcDbEntity
  8
Back Panel
 62
256
370
0
 48
1.0
  6
BYLAYER
100
AcDbCircle
 10
2.0
 20
-25.0
 30
0.0
 40
2.0
  0
CIRCLE
  5
B8
100
AcDbEntity
  8
Back Panel
 62
256
370
0
 48
1.0
  6
BYLAYER
100
AcDbCircle
 10
23.0
 20
-25.0
 30
0.0
 40
2.0
  0
CIRCLE
  5
B9
100
AcDbEntity
  8
Back Panel
 62
256
370
0
 48
1.0
  6
BYLAYER
100
AcDbCircle
 10
57.0
 20
-20.0
 30
0.0
 40
2.0
  0
CIRCLE
  5
BA
100
AcDbEntity
  8
Back Panel
 62
256
370
0
 48
1.0
  6
BYLAYER
100
AcDbCircle
 10
57.0
 20
-6.0
 30
0.0
 40
2.0
  0
LWPOLYLINE
  5
BB
100
AcDbEntity
  8
Middle Panel
 62
256
370
0
 48
1.0
  6
BYLAYER
100
AcDbPolyline
 90
4
 70
129
 10
103.0
 20
0.0
 10
102.0395229039285141
 20
0.0
 10
102.0395229039285141
 20
-27.4462312114551423
 10
103.0
 20
-27.4462312114551423
  0
LWPOLYLINE
  5
BC
100
AcDbEntity
  8
Middle Panel
 62
256
370
0
 48
1.0
  6
BYLAYER
100
AcDbPolyline
 90
4
 70
129
 10
-19.0
 20
-5.0
 10
-5.0
 20
-5.0
 10
-5.0
 20
-28.0
 10
-19.0
 20
-28.0
  0
CIRCLE
  5
BD
100
AcDbEntity
  8
Middle Panel
 62
256
370
0
 48
1.0
  6
BYLAYER
100
AcDbCircle
 10
-16.0
 20
-8.0
 30
0.0
 40
1.5
  0
CIRCLE
  5
BE
100
AcDbEntity
  8
Middle Panel
 62
256
370
0
 48
1.0
  6
BYLAYER
100
AcDbCircle
 10
-8.0
 20
-8.0
 30
0.0
 40
1.5
  0
CIRCLE
  5
BF
100
AcDbEntity
  8
Middle Panel
 62
256
370
0
 48
1.0
  6
BYLAYER
100
AcDbCircle
 10
-7.9999999999999982
 20
-25.0
 30
0.0
 40
1.5
  0
CIRCLE
  5
C0
100
AcDbEntity
  8
Middle Panel
 62
256
370
0
 48
1.0
  6
BYLAYER
100
AcDbCircle
 10
-16.0
 20
-25.0
 30
0.0
 40
1.5
  0
HATCH
  5
C1
100
AcDbEntity
  8
Middle Panel
 62
256
370
0
 48
1.0
  6
BYLAYER
100
AcDbHatch
 10
0.0
 20
0.0
 30
0.0
210
0.0
220
0.0
230
1.0
  2
SOLID
 70
1
 71
0
 91
1
 92
1
 93
4
 72
1
 10
103.0
 20
0.0
 11
102.0395229039285141
 21
0.0
 72
1
 10
102.0395229039285141
 20
0.0
 11
102.0395229039285141
 21
-27.4462312114551423
 72
1
 10
102.0395229039285141
 20
-27.4462312114551423
 11
103.0
 21
-27.4462312114551423
 72
1
 10
103.0
 20
-27.4462312114551423
 11
103.0
 21
0.0
 97
0
 75
0
 76
1
 98
0
1001
ACAD
1010
0.0
1020
0.0
1030
0
  0
DIMENSION
  5
C2
100
AcDbEntity
  8
Dimensions_FrontPanel
 62
256
370
0
 48
1.0
  6
BYLAYER
100
AcDbDimension
 10
-20.0000000000000071
 20
-42.5443018361059089
 30
0.0
 11
21.9999999999999964
 21
-40.6693018361059089
 31
0.0
 70
0
 71
8
 72
2
 74
0
 75
0
 41
1.0
 42
0.0
  1

  3
Standard
100
AcDbAlignedDimension
 13
-20.0
 23
-34.0
 33
0.0
 14
64.0
 24
-34.0
 34
0.0
 50
0.0
100
AcDbRotatedDimension
1001
ACAD
1000
DSTYLE
1002
{
1070
144
1040
0.1
1070
40
1040
1.0
1002
}
  0
DIMENSION
  5
C3
100
AcDbEntity
  8
Dimensions_FrontPanel
 62
256
370
0
 48
1.0
  6
BYLAYER
100
AcDbDimension
 10
-12.0
 20
14.4556981638940769
 30
0.0
 11
-16.0
 21
16.3306981638940769
 31
0.0
 70
0
 71
8
 72
2
 74
0
 75
0
 41
1.0
 42
0.0
  1

  3
Standard
100
AcDbAlignedDimension
 13
-12.0
 23
-16.0
 33
0.0
 14
-20.0
 24
-16.0
 34
0.0
 50
0.0
100
AcDbRotatedDimension
1001
ACAD
1000
DSTYLE
1002
{
1070
144
1040
0.1
1070
40
1040
1.0
1002
}
  0
DIMENSION
  5
C4
100
AcDbEntity
  8
Dimensions_FrontPanel
 62
256
370
0
 48
1.0
  6
BYLAYER
100
AcDbDimension
 10
47.9663571363783134
 20
19.3944674515810576
 30
0.0
 11
14.8240147940360103
 21
21.3287016858152896
 31
0.0
 70
128
 71
8
 72
2
 74
0
 75
0
 41
1.0
 42
0.0
  1

  3
Standard
100
AcDbAlignedDimension
 13
47.9663571363783134
 23
-10.8212307123130174
 33
0.0
 14
-20.0336428636216866
 24
-10.8212307123130174
 34
0.0
 50
0.0
100
AcDbRotatedDimension
1001
ACAD
1000
DSTYLE
1002
{
1070
279
1070
2
1070
144
1040
0.1
1070
40
1040
1.0
1002
}
  0
DIMENSION
  5
C5
100
AcDbEntity
  8
Dimensions_FrontPanel
 62
256
370
0
 48
1.0
  6
BYLAYER
100
AcDbDimension
 10
-31.5996471332703877
 20
-16.0
 30
0.0
 11
-33.4746471332703877
 21
-25.0
 31
0.0
 70
0
 71
8
 72
2
 74
0
 75
0
 41
1.0
 42
0.0
  1

  3
Standard
100
AcDbAlignedDimension
 13
-12.0
 23
-16.0
 33
0.0
 14
-12.0
 24
-34.0
 34
0.0
 50
90.0
100
AcDbRotatedDimension
1001
ACAD
1000
DSTYLE
1002
{
1070
144
1040
0.1
1070
40
1040
1.0
1002
}
  0
DIMENSION
  5
C6
100
AcDbEntity
  8
Dimensions_FrontPanel
 62
256
370
0
 48
1.0
  6
BYLAYER
100
AcDbDimension
 10
76.0
 20
-16.0
 30
0.0
 11
74.125
 21
-25.0
 31
0.0
 70
0
 71
8
 72
2
 74
0
 75
0
 41
1.0
 42
0.0
  1

  3
Standard
100
AcDbAlignedDimension
 13
48.0
 23
-16.0
 33
0.0
 14
48.0
 24
-34.0
 34
0.0
 50
90.0
100
AcDbRotatedDimension
1001
ACAD
1000
DSTYLE
1002
{
1070
144
1040
0.1
1070
40
1040
1.0
1002
}
  0
DIMENSION
  5
C7
100
AcDbEntity
  8
Dimensions_FrontPanel
 62
256
370
0
 48
1.0
  6
BYLAYER
100
AcDbDimension
 10
0.0
 20
-38.3787518361058915
 30
0.0
 11
-10.0
 21
-36.5037518361058915
 31
0.0
 70
0
 71
8
 72
2
 74
0
 75
0
 41
1.0
 42
0.0
  1

  3
Standard
100
AcDbAlignedDimension
 13
0.0
 23
-18.0
 33
0.0
 14
-20.0
 24
-34.625
 34
0.0
 50
0.0
100
AcDbRotatedDimension
1001
ACAD
1000
DSTYLE
1002
{
1070
144
1040
0.1
1070
40
1040
1.0
1002
}
  0
DIMENSION
  5
C8
100
AcDbEntity
  8
Dimensions_FrontPanel
 62
256
370
0
 48
1.0
  6
BYLAYER
100
AcDbDimension
 10
0.0
 20
14.3012481638941011
 30
0.0
 11
12.5
 21
16.1762481638941011
 31
0.0
 70
0
 71
8
 72
2
 74
0
 75
0
 41
1.0
 42
0.0
  1

  3
Standard
100
AcDbAlignedDimension
 13
0.0
 23
-5.0
 33
0.0
 14
25.0
 24
-5.0
 34
0.0
 50
0.0
100
AcDbRotatedDimension
1001
ACAD
1000
DSTYLE
1002
{
1070
144
1040
0.1
1070
40
1040
1.0
1002
}
  0
DIMENSION
  5
C9
100
AcDbEntity
  8
Dimensions_MiddlePanel
 62
256
370
0
 48
1.0
  6
BYLAYER
100
AcDbDimension
 10
-19.0
 20
-31.5627518361058819
 30
0.0
 11
-12.0
 21
-29.6877518361058819
 31
0.0
 70
0
 71
8
 72
2
 74
0
 75
0
 41
1.0
 42
0.0
  1

  3
Standard
100
AcDbAlignedDimension
 13
-19.0
 23
-28.0
 33
0.0
 14
-5.0
 24
-28.0
 34
0.0
 50
0.0
100
AcDbRotatedDimension
1001
ACAD
1000
DSTYLE
1002
{
1070
144
1040
0.1
1070
40
1040
1.0
1002
}
  0
DIMENSION
  5
CA
100
AcDbEntity
  8
Dimensions_MiddlePanel
 62
256
370
0
 48
1.0
  6
BYLAYER
100
AcDbDimension
 10
-2.2432663719535242
 20
-5.0
 30
0.0
 11
-4.1182663719535242
 21
-16.5
 31
0.0
 70
0
 71
8
 72
2
 74
0
 75
0
 41
1.0
 42
0.0
  1

  3
Standard
100
AcDbAlignedDimension
 13
-6.0
 23
-5.0
 33
0.0
 14
-6.0
 24
-28.0
 34
0.0
 50
90.0
100
AcDbRotatedDimension
1001
ACAD
1000
DSTYLE
1002
{
1070
144
1040
0.1
1070
40
1040
1.0
1002
}
  0
DIMENSION
  5
CB
100
AcDbEntity
  8
Dimensions_MiddlePanel
 62
256
370
0
 48
1.0
  6
BYLAYER
100
AcDbDimension
 10
-22.5316753225708197
 20
-8.0
 30
0.0
 11
-24.4066753225708197
 21
-1.7855560032232072
 31
0.0
 70
0
 71
8
 72
2
 74
0
 75
0
 41
1.0
 42
0.0
  1

  3
Standard
100
AcDbAlignedDimension
 13
-16.0
 23
-8.0
 33
0.0
 14
-16.0
 24
-5.0
 34
0.0
 50
90.0
100
AcDbRotatedDimension
1001
ACAD
1000
DSTYLE
1002
{
1070
144
1040
0.1
1070
40
1040
1.0
1002
}
  0
DIMENSION
  5
CC
100
AcDbEntity
  8
Dimensions_MiddlePanel
 62
256
370
0
 48
1.0
  6
BYLAYER
100
AcDbDimension
 10
-22.4914875653691659
 20
-25.0
 30
0.0
 11
-24.3664875653691659
 21
-21.7853545527800172
 31
0.0
 70
0
 71
8
 72
2
 74
0
 75
0
 41
1.0
 42
0.0
  1

  3
Standard
100
AcDbAlignedDimension
 13
-16.0
 23
-25.0
 33
0.0
 14
-16.0
 24
-28.0
 34
0.0
 50
90.0
100
AcDbRotatedDimension
1001
ACAD
1000
DSTYLE
1002
{
1070
144
1040
0.1
1070
40
1040
1.0
1002
}
  0
DIMENSION
  5
CD
100
AcDbEntity
  8
Dimensions_MiddlePanel
 62
256
370
0
 48
1.0
  6
BYLAYER
100
AcDbDimension
 10
-19.0
 20
5.0
 30
0.0
 11
-12.7851531023368246
 21
6.875
 31
0.0
 70
0
 71
8
 72
2
 74
0
 75
0
 41
1.0
 42
0.0
  1

  3
Standard
100
AcDbAlignedDimension
 13
-19.0
 23
-5.0
 33
0.0
 14
-16.0
 24
-8.0
 34
0.0
 50
0.0
100
AcDbRotatedDimension
1001
ACAD
1000
DSTYLE
1002
{
1070
144
1040
0.1
1070
40
1040
1.0
1002
}
  0
DIMENSION
  5
CE
100
AcDbEntity
  8
Dimensions_BackPanel
 62
256
370
0
 48
1.0
  6
BYLAYER
100
AcDbDimension
 10
-28.7394273801840185
 20
-34.0
 30
0.0
 11
-30.6144273801840185
 21
-18.0
 31
0.0
 70
0
 71
8
 72
2
 74
0
 75
0
 41
1.0
 42
0.0
  1

  3
Standard
100
AcDbAlignedDimension
 13
2.0
 23
-34.0
 33
0.0
 14
2.0
 24
-2.0
 34
0.0
 50
90.0
100
AcDbRotatedDimension
1001
ACAD
1000
DSTYLE
1002
{
1070
144
1040
0.1
1070
40
1040
1.0
1002
}
  0
DIMENSION
  5
CF
100
AcDbEntity
  8
Dimensions_BackPanel
 62
256
370
0
 48
1.0
  6
BYLAYER
100
AcDbDimension
 10
-21.0048777274036311
 20
-25.0253213766878098
 30
0.0
 11
-22.8798777274036311
 21
-29.5253213766878133
 31
0.0
 70
0
 71
8
 72
2
 74
0
 75
0
 41
1.0
 42
0.0
  1

  3
Standard
100
AcDbAlignedDimension
 13
4.9951222725963724
 23
-25.0253213766878098
 33
0.0
 14
4.9951222725963724
 24
-34.0253213766878133
 34
0.0
 50
90.0
100
AcDbRotatedDimension
1001
ACAD
1000
DSTYLE
1002
{
1070
144
1040
0.1
1070
40
1040
1.0
1002
}
  0
DIMENSION
  5
D0
100
AcDbEntity
  8
Dimensions_BackPanel
 62
256
370
0
 48
1.0
  6
BYLAYER
100
AcDbDimension
 10
70.0
 20
-6.0
 30
0.0
 11
68.125
 21
-0.9999999999999998
 31
0.0
 70
0
 71
8
 72
2
 74
0
 75
0
 41
1.0
 42
0.0
  1

  3
Standard
100
AcDbAlignedDimension
 13
57.0
 23
-6.0
 33
0.0
 14
57.0
 24
4.0
 34
0.0
 50
90.0
100
AcDbRotatedDimension
1001
ACAD
1000
DSTYLE
1002
{
1070
144
1040
0.1
1070
40
1040
1.0
1002
}
  0
DIMENSION
  5
D1
100
AcDbEntity
  8
Dimensions_BackPanel
 62
256
370
0
 48
1.0
  6
BYLAYER
100
AcDbDimension
 10
70.0
 20
-20.0
 30
0.0
 11
68.125
 21
-27.0
 31
0.0
 70
0
 71
8
 72
2
 74
0
 75
0
 41
1.0
 42
0.0
  1

  3
Standard
100
AcDbAlignedDimension
 13
57.0
 23
-20.0
 33
0.0
 14
57.0
 24
-34.0
 34
0.0
 50
90.0
100
AcDbRotatedDimension
1001
ACAD
1000
DSTYLE
1002
{
1070
144
1040
0.1
1070
40
1040
1.0
1002
}
  0
DIMENSION
  5
D2
100
AcDbEntity
  8
Dimensions_BackPanel
 62
256
370
0
 48
1.0
  6
BYLAYER
100
AcDbDimension
 10
-20.0
 20
10.0
 30
0.0
 11
-9.0
 21
11.875
 31
0.0
 70
0
 71
8
 72
2
 74
0
 75
0
 41
1.0
 42
0.0
  1

  3
Standard
100
AcDbAlignedDimension
 13
-20.0
 23
4.0
 33
0.0
 14
2.0
 24
-2.0
 34
0.0
 50
0.0
100
AcDbRotatedDimension
1001
ACAD
1000
DSTYLE
1002
{
1070
144
1040
0.1
1070
40
1040
1.0
1002
}
  0
DIMENSION
  5
D3
100
AcDbEntity
  8
Dimensions_BackPanel
 62
256
370
0
 48
1.0
  6
BYLAYER
100
AcDbDimension
 10
23.0
 20
16.0
 30
0.0
 11
1.5000000000000002
 21
17.875
 31
0.0
 70
0
 71
8
 72
2
 74
0
 75
0
 41
1.0
 42
0.0
  1

  3
Standard
100
AcDbAlignedDimension
 13
23.0
 23
-2.0
 33
0.0
 14
-20.0
 24
4.0
 34
0.0
 50
0.0
100
AcDbRotatedDimension
1001
ACAD
1000
DSTYLE
1002
{
1070
144
1040
0.1
1070
40
1040
1.0
1002
}
  0
DIMENSION
  5
D4
100
AcDbEntity
  8
Dimensions_BackPanel
 62
256
370
0
 48
1.0
  6
BYLAYER
100
AcDbDimension
 10
57.0
 20
22.0
 30
0.0
 11
18.5
 21
23.875
 31
0.0
 70
0
 71
8
 72
2
 74
0
 75
0
 41
1.0
 42
0.0
  1

  3
Standard
100
AcDbAlignedDimension
 13
57.0
 23
-6.0
 33
0.0
 14
-20.0
 24
4.0
 34
0.0
 50
0.0
100
AcDbRotatedDimension
1001
ACAD
1000
DSTYLE
1002
{
1070
144
1040
0.1
1070
40
1040
1.0
1002
}
  0
DIMENSION
  5
D5
100
AcDbEntity
  8
Dimensions_FrontPanel
 62
256
370
-1
 48
1.0
  6
BYLAYER
100
AcDbDimension
 10
68.7686350856238278
 20
1.0
 30
0.0
 11
66.8936350856238278
 21
7.2146454472199846
 31
0.0
 70
0
 71
8
 72
2
 74
0
 75
0
 41
1.0
 42
0.0
  1

  3
Standard
100
AcDbAlignedDimension
 13
61.0
 23
1.0
 33
0.0
 14
61.0
 24
4.0
 34
0.0
 50
90.0
100
AcDbRotatedDimension
1001
ACAD
1000
DSTYLE
1002
{
1070
144
1040
0.1
1070
40
1040
1.0
1002
}
  0
DIMENSION
  5
D6
100
AcDbEntity
  8
Dimensions_FrontPanel
 62
256
370
-1
 48
1.0
  6
BYLAYER
100
AcDbDimension
 10
69.0
 20
-31.0
 30
0.0
 11
67.125
 21
-27.7853545527800172
 31
0.0
 70
0
 71
8
 72
2
 74
0
 75
0
 41
1.0
 42
0.0
  1

  3
Standard
100
AcDbAlignedDimension
 13
61.0
 23
-31.0
 33
0.0
 14
61.0
 24
-34.0
 34
0.0
 50
90.0
100
AcDbRotatedDimension
1001
ACAD
1000
DSTYLE
1002
{
1070
144
1040
0.1
1070
40
1040
1.0
1002
}
  0
DIMENSION
  5
D7
100
AcDbEntity
  8
Dimensions_FrontPanel
 62
256
370
-1
 48
1.0
  6
BYLAYER
100
AcDbDimension
 10
-17.0
 20
-26.0
 30
0.0
 11
-13.7853545527800172
 21
-24.125
 31
0.0
 70
0
 71
8
 72
2
 74
0
 75
0
 41
1.0
 42
0.0
  1

  3
Standard
100
AcDbAlignedDimension
 13
-17.0
 23
-31.0
 33
0.0
 14
-20.0
 24
-31.0
 34
0.0
 50
0.0
100
AcDbRotatedDimension
1001
ACAD
1000
DSTYLE
1002
{
1070
144
1040
0.1
1070
40
1040
1.0
1002
}
  0
DIMENSION
  5
D8
100
AcDbEntity
  8
Dimensions_FrontPanel
 62
256
370
-1
 48
1.0
  6
BYLAYER
100
AcDbDimension
 10
61.0
 20
-5.0
 30
0.0
 11
67.2146454472199792
 21
-3.125
 31
0.0
 70
0
 71
8
 72
2
 74
0
 75
0
 41
1.0
 42
0.0
  1

  3
Standard
100
AcDbAlignedDimension
 13
61.0
 23
1.0
 33
0.0
 14
64.0
 24
-3.0
 34
0.0
 50
0.0
100
AcDbRotatedDimension
1001
ACAD
1000
DSTYLE
1002
{
1070
144
1040
0.1
1070
40
1040
1.0
1002
}
  0
DIMENSION
  5
D9
100
AcDbEntity
  8
Dimensions_FrontPanel
 62
256
370
-1
 48
1.0
  6
BYLAYER
100
AcDbDimension
 10
-15.939339828220179
 20
2.0606601717798214
 30
0.0
 11
-14.9920674481052423
 21
5.659582981344311
 31
0.0
 70
3
 71
8
 72
2
 74
0
 75
0
 41
1.0
 42
0.0
  1

  3
Standard
100
AcDbDiametricDimension
 15
-18.0606601717798227
 25
-0.0606601717798212
 35
0.0
 40
0.0
1001
ACAD
1000
DSTYLE
1002
{
1070
144
1040
0.1
1070
40
1040
1.0
1002
}
  0
DIMENSION
  5
DA
100
AcDbEntity
  8
Dimensions_FrontPanel
 62
256
370
-1
 48
1.0
  6
BYLAYER
100
AcDbDimension
 10
50.0
 20
-14.0
 30
0.0
 11
42.0
 21
-18.0
 31
0.0
 70
131
 71
8
 72
2
 74
0
 75
0
 41
1.0
 42
0.0
  1

  3
Standard
100
AcDbDiametricDimension
 15
46.0
 25
-18.0
 35
0.0
 40
0.0
1001
ACAD
1000
DSTYLE
1002
{
1070
279
1070
2
1070
144
1040
0.1
1070
40
1040
1.0
1002
}
  0
DIMENSION
  5
DB
100
AcDbEntity
  8
Dimensions_FrontPanel
 62
256
370
-1
 48
1.0
  6
BYLAYER
100
AcDbDimension
 10
-10.4188611699158109
 20
-14.4188611699158109
 30
0.0
 11
-11.0
 21
-11.0
 31
0.0
 70
131
 71
8
 72
2
 74
0
 75
0
 41
1.0
 42
0.0
  1

  3
Standard
100
AcDbDiametricDimension
 15
-13.5811388300841909
 25
-17.5811388300841891
 35
0.0
 40
0.0
1001
ACAD
1000
DSTYLE
1002
{
1070
279
1070
2
1070
144
1040
0.1
1070
40
1040
1.0
1002
}
  0
DIMENSION
  5
DC
100
AcDbEntity
  8
Dimensions_FrontPanel
 62
256
370
-1
 48
1.0
  6
BYLAYER
100
AcDbDimension
 10
10.0
 20
4.0
 30
0.0
 11
8.125
 21
-0.4999999999999998
 31
0.0
 70
0
 71
8
 72
2
 74
0
 75
0
 41
1.0
 42
0.0
  1

  3
Standard
100
AcDbAlignedDimension
 13
0.0000000000000001
 23
4.0
 33
0.0
 14
0.0
 24
-5.0
 34
0.0
 50
90.0
100
AcDbRotatedDimension
1001
ACAD
1000
DSTYLE
1002
{
1070
144
1040
0.1
1070
40
1040
1.0
1002
}
  0
DIMENSION
  5
DD
100
AcDbEntity
  8
Dimensions_FrontPanel
 62
256
370
-1
 48
1.0
  6
BYLAYER
100
AcDbDimension
 10
96.2654562354773589
 20
4.0
 30
0.0
 11
94.3904562354773589
 21
-15.0
 31
0.0
 70
0
 71
8
 72
2
 74
0
 75
0
 41
1.0
 42
0.0
  1

  3
Standard
100
AcDbAlignedDimension
 13
104.0
 23
4.0
 33
0.0
 14
104.0714378614382127
 24
-34.0
 34
0.0
 50
90.0
100
AcDbRotatedDimension
1001
ACAD
1000
DSTYLE
1002
{
1070
144
1040
0.1
1070
40
1040
1.0
1002
}
  0
DIMENSION
  5
DE
100
AcDbEntity
  8
Dimensions_FrontPanel
 62
256
370
-1
 48
1.0
  6
BYLAYER
100
AcDbDimension
 10
24.0
 20
-18.0
 30
0.0
 11
22.125
 21
-26.0
 31
0.0
 70
0
 71
8
 72
2
 74
0
 75
0
 41
1.0
 42
0.0
  1

  3
Standard
100
AcDbAlignedDimension
 13
25.0
 23
-18.0
 33
0.0
 14
20.0
 24
-34.0
 34
0.0
 50
90.0
100
AcDbRotatedDimension
1001
ACAD
1000
DSTYLE
1002
{
1070
144
1040
0.1
1070
40
1040
1.0
1002
}
  0
DIMENSION
  5
DF
100
AcDbEntity
  8
Dimensions_FrontPanel
 62
256
370
-1
 48
1.0
  6
BYLAYER
100
AcDbDimension
 10
24.0
 20
-11.5
 30
0.0
 11
22.125
 21
-11.5
 31
0.0
 70
0
 71
8
 72
2
 74
0
 75
0
 41
1.0
 42
0.0
  1

  3
Standard
100
AcDbAlignedDimension
 13
24.0
 23
-18.0
 33
0.0
 14
24.0
 24
-5.0
 34
0.0
 50
90.0
100
AcDbRotatedDimension
1001
ACAD
1000
DSTYLE
1002
{
1070
144
1040
0.1
1070
40
1040
1.0
1002
}
  0
DIMENSION
  5
E0
100
AcDbEntity
  8
Dimensions_BackPanel
 62
256
370
-1
 48
1.0
  6
BYLAYER
100
AcDbDimension
 10
-25.0
 20
-8.0
 30
0.0
 11
-26.875
 21
-21.0
 31
0.0
 70
0
 71
8
 72
2
 74
0
 75
0
 41
1.0
 42
0.0
  1

  3
Standard
100
AcDbAlignedDimension
 13
-16.0
 23
-8.0
 33
0.0
 14
-18.0
 24
-34.0
 34
0.0
 50
90.0
100
AcDbRotatedDimension
1001
ACAD
1000
DSTYLE
1002
{
1070
144
1040
0.1
1070
40
1040
1.0
1002
}
  0
DIMENSION
  5
E1
100
AcDbEntity
  8
Dimensions_BackPanel
 62
256
370
-1
 48
1.0
  6
BYLAYER
100
AcDbDimension
 10
-16.0
 20
-40.0
 30
0.0
 11
-12.7440572119258668
 21
-38.125
 31
0.0
 70
0
 71
8
 72
2
 74
0
 75
0
 41
1.0
 42
0.0
  1

  3
Standard
100
AcDbAlignedDimension
 13
-16.0
 23
-25.0
 33
0.0
 14
-20.0
 24
-33.9999999999999929
 34
0.0
 50
0.0
100
AcDbRotatedDimension
1001
ACAD
1000
DSTYLE
1002
{
1070
144
1040
0.1
1070
40
1040
1.0
1002
}
  0
DIMENSION
  5
E2
100
AcDbEntity
  8
Dimensions_BackPanel
 62
256
370
-1
 48
1.0
  6
BYLAYER
100
AcDbDimension
 10
-7.9999999999999982
 20
-46.0
 30
0.0
 11
-14.0
 21
-44.125
 31
0.0
 70
0
 71
8
 72
2
 74
0
 75
0
 41
1.0
 42
0.0
  1

  3
Standard
100
AcDbAlignedDimension
 13
-7.9999999999999982
 23
-25.0
 33
0.0
 14
-20.0
 24
-33.9999999999999929
 34
0.0
 50
0.0
100
AcDbRotatedDimension
1001
ACAD
1000
DSTYLE
1002
{
1070
144
1040
0.1
1070
40
1040
1.0
1002
}
  0
DIMENSION
  5
E3
100
AcDbEntity
  8
Dimensions_MiddlePanel
 62
256
370
-1
 48
1.0
  6
BYLAYER
100
AcDbDimension
 10
-12.0
 20
-22.0
 30
0.0
 11
-15.5
 21
-20.125
 31
0.0
 70
0
 71
8
 72
2
 74
0
 75
0
 41
1.0
 42
0.0
  1

  3
Standard
100
AcDbAlignedDimension
 13
-12.0
 23
-16.0
 33
0.0
 14
-19.0
 24
-16.0
 34
0.0
 50
0.0
100
AcDbRotatedDimension
1001
ACAD
1000
DSTYLE
1002
{
1070
144
1040
0.1
1070
40
1040
1.0
1002
}
  0
DIMENSION
  5
E4
100
AcDbEntity
  8
Dimensions_MiddlePanel
 62
256
370
-1
 48
1.0
  6
BYLAYER
100
AcDbDimension
 10
-29.0
 20
-16.0
 30
0.0
 11
-30.875
 21
-10.5
 31
0.0
 70
0
 71
8
 72
2
 74
0
 75
0
 41
1.0
 42
0.0
  1

  3
Standard
100
AcDbAlignedDimension
 13
-12.0
 23
-16.0
 33
0.0
 14
-12.0
 24
-5.0
 34
0.0
 50
90.0
100
AcDbRotatedDimension
1001
ACAD
1000
DSTYLE
1002
{
1070
144
1040
0.1
1070
40
1040
1.0
1002
}
  0
ENDSEC
  0
SECTION
  2
OBJECTS
  0
DICTIONARY
  5
C
100
AcDbDictionary
280
0
281
1
  3
ACAD_GROUP
350
D
  3
ACAD_LAYOUT
350
1A
  3
ACAD_MLINESTYLE
350
17
  3
ACAD_PLOTSETTINGS
350
19
  3
ACAD_PLOTSTYLENAME
350
E
  3
AcDbVariableDictionary
350
E5
  3
QCAD_OBJECTS
350
E6
  0
DICTIONARY
  5
D
100
AcDbDictionary
280
0
281
1
  0
ACDBDICTIONARYWDFLT
  5
E
100
AcDbDictionary
281
1
  3
Normal
350
F
100
AcDbDictionaryWithDefault
340
F
  0
ACDBPLACEHOLDER
  5
F
  0
DICTIONARY
  5
17
100
AcDbDictionary
280
0
281
1
  3
Standard
350
18
  0
MLINESTYLE
  5
18
100
AcDbMlineStyle
  2
STANDARD
 70
0
  3

 62
256
 51
90.0
 52
90.0
 71
2
 49
0.5
 62
256
  6
BYLAYER
 49
-0.5
 62
256
  6
BYLAYER
  0
DICTIONARY
  5
19
100
AcDbDictionary
280
0
281
1
  0
DICTIONARY
  5
1A
100
AcDbDictionary
281
1
  3
Layout1
350
1E
  3
Layout2
350
26
  3
Model
350
22
  0
LAYOUT
  5
1E
100
AcDbPlotSettings
  1

  2
none_device
  4

  6

 40
0.0
 41
0.0
 42
0.0
 43
0.0
 44
0.0
 45
0.0
 46
0.0
 47
0.0
 48
0.0
 49
0.0
140
0.0
141
0.0
142
1.0
143
1.0
 70
688
 72
0
 73
0
 74
5
  7

 75
16
147
1.0
148
0.0
149
0.0
100
AcDbLayout
  1
Layout1
 70
1
 71
1
 10
0.0
 20
0.0
 11
420.0
 21
297.0
 12
0.0
 22
0.0
 32
0.0
 14
100000000000000000000.0
 24
100000000000000000000.0
 34
100000000000000000000.0
 15
-100000000000000000000.0
 25
-100000000000000000000.0
 35
-100000000000000000000.0
146
0.0
 13
0.0
 23
0.0
 33
0.0
 16
1.0
 26
0.0
 36
0.0
 17
0.0
 27
1.0
 37
0.0
 76
0
330
1B
  0
LAYOUT
  5
22
100
AcDbPlotSettings
  1

  2
none_device
  4

  6

 40
0.0
 41
0.0
 42
0.0
 43
0.0
 44
0.0
 45
0.0
 46
0.0
 47
0.0
 48
0.0
 49
0.0
140
0.0
141
0.0
142
1.0
143
1.0
 70
1712
 72
0
 73
0
 74
0
  7

 75
0
147
1.0
148
0.0
149
0.0
100
AcDbLayout
  1
Model
 70
1
 71
0
 10
0.0
 20
0.0
 11
12.0
 21
9.0
 12
0.0
 22
0.0
 32
0.0
 14
0.0
 24
0.0
 34
0.0
 15
0.0
 25
0.0
 35
0.0
146
0.0
 13
0.0
 23
0.0
 33
0.0
 16
1.0
 26
0.0
 36
0.0
 17
0.0
 27
1.0
 37
0.0
 76
0
330
1F
  0
LAYOUT
  5
26
100
AcDbPlotSettings
  1

  2
none_device
  4

  6

 40
0.0
 41
0.0
 42
0.0
 43
0.0
 44
0.0
 45
0.0
 46
0.0
 47
0.0
 48
0.0
 49
0.0
140
0.0
141
0.0
142
1.0
143
1.0
 70
688
 72
0
 73
0
 74
5
  7

 75
16
147
1.0
148
0.0
149
0.0
100
AcDbLayout
  1
Layout2
 70
1
 71
2
 10
0.0
 20
0.0
 11
12.0
 21
9.0
 12
0.0
 22
0.0
 32
0.0
 14
0.0
 24
0.0
 34
0.0
 15
0.0
 25
0.0
 35
0.0
146
0.0
 13
0.0
 23
0.0
 33
0.0
 16
1.0
 26
0.0
 36
0.0
 17
0.0
 27
1.0
 37
0.0
 76
0
330
23
  0
DICTIONARY
  5
E5
100
AcDbDictionary
281
1
  3
DIMASSOC
350
E8
  3
HIDETEXT
350
E7
  0
DICTIONARYVAR
  5
E7
100
DictionaryVariables
280
0
  1
2
  0
DICTIONARYVAR
  5
E8
100
DictionaryVariables
280
0
  1
1
  0
DICTIONARY
  5
E6
100
AcDbDictionary
281
1
  3
ColorSettings/BackgroundColor
350
E9
  3
ColorSettings/ColorMode
350
EA
  3
DimensionSettings/AngularFormat
350
EB
  3
DimensionSettings/AngularPrecision
350
EC
  3
DimensionSettings/DecimalPoint
350
ED
  3
DimensionSettings/DimensionFont
350
EE
  3
DimensionSettings/KeepProportions
350
EF
  3
DimensionSettings/LinearFormat
350
F0
  3
DimensionSettings/LinearPrecision
350
F1
  3
Grid/DisplayGrid00
350
F2
  3
Grid/DisplayGrid01
350
F3
  3
Grid/DisplayGrid02
350
F4
  3
Grid/DisplayGrid03
350
F5
  3
Grid/GridSpacingX00
350
F6
  3
Grid/GridSpacingX01
350
F7
  3
Grid/GridSpacingX02
350
F8
  3
Grid/GridSpacingX03
350
F9
  3
Grid/GridSpacingY00
350
FA
  3
Grid/GridSpacingY01
350
FB
  3
Grid/GridSpacingY02
350
FC
  3
Grid/GridSpacingY03
350
FD
  3
Grid/IsometricGrid00
350
FE
  3
Grid/IsometricGrid01
350
FF
  3
Grid/IsometricGrid02
350
100
  3
Grid/IsometricGrid03
350
101
  3
Grid/IsometricProjection00
350
102
  3
Grid/IsometricProjection01
350
103
  3
Grid/IsometricProjection02
350
104
  3
Grid/IsometricProjection03
350
105
  3
Grid/MetaGridSpacingX00
350
106
  3
Grid/MetaGridSpacingX01
350
107
  3
Grid/MetaGridSpacingX02
350
108
  3
Grid/MetaGridSpacingX03
350
109
  3
Grid/MetaGridSpacingY00
350
10A
  3
Grid/MetaGridSpacingY01
350
10B
  3
Grid/MetaGridSpacingY02
350
10C
  3
Grid/MetaGridSpacingY03
350
10D
  3
MultiPageSettings/Columns
350
10E
  3
MultiPageSettings/GlueMarginsBottom
350
10F
  3
MultiPageSettings/GlueMarginsLeft
350
110
  3
MultiPageSettings/GlueMarginsRight
350
111
  3
MultiPageSettings/GlueMarginsTop
350
112
  3
MultiPageSettings/PrintCropMarks
350
113
  3
MultiPageSettings/Rows
350
114
  3
PageSettings/OffsetX
350
115
  3
PageSettings/OffsetY
350
116
  3
PageSettings/PageOrientation
350
117
  3
PageSettings/PaperHeight
350
118
  3
PageSettings/PaperWidth
350
119
  3
PageSettings/Scale
350
11A
  3
PageSettings/ShowPaperBorders
350
11B
  3
QCADVersion
350
11C
  3
UnitSettings/Measurement
350
11D
  3
UnitSettings/PaperUnit
350
11E
  3
ViewportCenter
350
11F
  3
ViewportHeight
350
120
  3
ViewportWidth
350
121
  0
XRECORD
  5
E9
330
E6
100
AcDbXrecord
280
1
1000
White
  0
XRECORD
  5
EA
330
E6
100
AcDbXrecord
280
1
1000
FullColor
  0
XRECORD
  5
EB
330
E6
100
AcDbXrecord
280
1
 90
2
  0
XRECORD
  5
EC
330
E6
100
AcDbXrecord
280
1
 90
0
  0
XRECORD
  5
ED
330
E6
100
AcDbXrecord
280
1
 90
46
  0
XRECORD
  5
EE
330
E6
100
AcDbXrecord
280
1
1000
DejaVu Sans
  0
XRECORD
  5
EF
330
E6
100
AcDbXrecord
280
1
290
1
  0
XRECORD
  5
F0
330
E6
100
AcDbXrecord
280
1
 90
2
  0
XRECORD
  5
F1
330
E6
100
AcDbXrecord
280
1
 90
1
  0
XRECORD
  5
F2
330
E6
100
AcDbXrecord
280
1
290
1
  0
XRECORD
  5
F3
330
E6
100
AcDbXrecord
280
1
290
1
  0
XRECORD
  5
F4
330
E6
100
AcDbXrecord
280
1
290
1
  0
XRECORD
  5
F5
330
E6
100
AcDbXrecord
280
1
290
1
  0
XRECORD
  5
F6
330
E6
100
AcDbXrecord
280
1
1000
auto
  0
XRECORD
  5
F7
330
E6
100
AcDbXrecord
280
1
1000
auto
  0
XRECORD
  5
F8
330
E6
100
AcDbXrecord
280
1
1000
auto
  0
XRECORD
  5
F9
330
E6
100
AcDbXrecord
280
1
1000
auto
  0
XRECORD
  5
FA
330
E6
100
AcDbXrecord
280
1
1000
auto
  0
XRECORD
  5
FB
330
E6
100
AcDbXrecord
280
1
1000
auto
  0
XRECORD
  5
FC
330
E6
100
AcDbXrecord
280
1
1000
auto
  0
XRECORD
  5
FD
330
E6
100
AcDbXrecord
280
1
1000
auto
  0
XRECORD
  5
FE
330
E6
100
AcDbXrecord
280
1
290
0
  0
XRECORD
  5
FF
330
E6
100
AcDbXrecord
280
1
290
0
  0
XRECORD
  5
100
330
E6
100
AcDbXrecord
280
1
290
0
  0
XRECORD
  5
101
330
E6
100
AcDbXrecord
280
1
290
0
  0
XRECORD
  5
102
330
E6
100
AcDbXrecord
280
1
 90
65537
  0
XRECORD
  5
103
330
E6
100
AcDbXrecord
280
1
 90
65537
  0
XRECORD
  5
104
330
E6
100
AcDbXrecord
280
1
 90
65537
  0
XRECORD
  5
105
330
E6
100
AcDbXrecord
280
1
 90
65537
  0
XRECORD
  5
106
330
E6
100
AcDbXrecord
280
1
1000
auto
  0
XRECORD
  5
107
330
E6
100
AcDbXrecord
280
1
1000
auto
  0
XRECORD
  5
108
330
E6
100
AcDbXrecord
280
1
1000
auto
  0
XRECORD
  5
109
330
E6
100
AcDbXrecord
280
1
1000
auto
  0
XRECORD
  5
10A
330
E6
100
AcDbXrecord
280
1
1000
auto
  0
XRECORD
  5
10B
330
E6
100
AcDbXrecord
280
1
1000
auto
  0
XRECORD
  5
10C
330
E6
100
AcDbXrecord
280
1
1000
auto
  0
XRECORD
  5
10D
330
E6
100
AcDbXrecord
280
1
1000
auto
  0
XRECORD
  5
10E
330
E6
100
AcDbXrecord
280
1
 90
1
  0
XRECORD
  5
10F
330
E6
100
AcDbXrecord
280
1
 40
10.0
  0
XRECORD
  5
110
330
E6
100
AcDbXrecord
280
1
 40
10.0
  0
XRECORD
  5
111
330
E6
100
AcDbXrecord
280
1
 40
10.0
  0
XRECORD
  5
112
330
E6
100
AcDbXrecord
280
1
 40
10.0
  0
XRECORD
  5
113
330
E6
100
AcDbXrecord
280
1
290
0
  0
XRECORD
  5
114
330
E6
100
AcDbXrecord
280
1
 90
1
  0
XRECORD
  5
115
330
E6
100
AcDbXrecord
280
1
 40
0.0
  0
XRECORD
  5
116
330
E6
100
AcDbXrecord
280
1
 40
0.0
  0
XRECORD
  5
117
330
E6
100
AcDbXrecord
280
1
1000
Portrait
  0
XRECORD
  5
118
330
E6
100
AcDbXrecord
280
1
 40
297.0
  0
XRECORD
  5
119
330
E6
100
AcDbXrecord
280
1
 40
210.0
  0
XRECORD
  5
11A
330
E6
100
AcDbXrecord
280
1
1000
1:1
  0
XRECORD
  5
11B
330
E6
100
AcDbXrecord
280
1
290
1
  0
XRECORD
  5
11C
330
E6
100
AcDbXrecord
280
1
1000
3.23.0
  0
XRECORD
  5
11D
330
E6
100
AcDbXrecord
280
1
 90
1
  0
XRECORD
  5
11E
330
E6
100
AcDbXrecord
280
1
 90
5
  0
XRECORD
  5
120
330
E6
100
AcDbXrecord
280
1
 40
48.8978561895228054
  0
XRECORD
  5
121
330
E6
100
AcDbXrecord
280
1
 40
101.0359317650983257
  0
ENDSEC
  0
EOF
